<mxfile host="Electron" modified="2024-04-12T14:21:35.244Z" agent="Mozilla/5.0 (Windows NT 10.0; Win64; x64) AppleWebKit/537.36 (KHTML, like Gecko) draw.io/24.1.0 Chrome/120.0.6099.109 Electron/28.1.0 Safari/537.36" etag="j4qCyWqY8LyO2bDFPvM5" version="24.1.0" type="device">
  <diagram id="GzRkA3sKAk56NfKHIzom" name="Page-1">
    <mxGraphModel dx="1434" dy="884" grid="1" gridSize="10" guides="1" tooltips="1" connect="1" arrows="1" fold="1" page="1" pageScale="1" pageWidth="1169" pageHeight="827" math="0" shadow="0">
      <root>
        <mxCell id="0" />
        <mxCell id="1" parent="0" />
        <mxCell id="Zn5r9EZrdUr86XTQLXBg-1" value="Modifier un article" style="shape=umlFrame;whiteSpace=wrap;html=1;width=170;height=40;fontStyle=1;labelBackgroundColor=#ffffff;labelBorderColor=none;gradientColor=none;swimlaneFillColor=none;shadow=0;strokeColor=#000000;" parent="1" vertex="1">
          <mxGeometry x="50" y="140" width="1100" height="460" as="geometry" />
        </mxCell>
        <mxCell id="Zn5r9EZrdUr86XTQLXBg-2" value="Diagramme de sÃ©quence - Modifier un article" style="text;html=1;resizable=0;points=[];autosize=1;align=center;verticalAlign=top;spacingTop=-4;fontSize=16;" parent="1" vertex="1">
          <mxGeometry x="435" y="60" width="330" height="20" as="geometry" />
        </mxCell>
        <mxCell id="Zn5r9EZrdUr86XTQLXBg-3" value=":user" style="shape=umlActor;verticalLabelPosition=bottom;labelBackgroundColor=#ffffff;verticalAlign=top;html=1;shadow=0;strokeColor=#000000;gradientColor=none;fontSize=16;align=center;" parent="1" vertex="1">
          <mxGeometry x="140" y="200" width="30" height="60" as="geometry" />
        </mxCell>
        <mxCell id="Zn5r9EZrdUr86XTQLXBg-4" value=":system" style="rounded=1;whiteSpace=wrap;html=1;shadow=0;labelBackgroundColor=#ffffff;strokeColor=#000000;gradientColor=none;fontSize=16;align=center;" parent="1" vertex="1">
          <mxGeometry x="330" y="200" width="120" height="60" as="geometry" />
        </mxCell>
        <mxCell id="Zn5r9EZrdUr86XTQLXBg-5" value="" style="endArrow=none;dashed=1;html=1;fontSize=16;entryX=0.482;entryY=0.683;entryDx=0;entryDy=0;entryPerimeter=0;exitX=0.093;exitY=1.003;exitDx=0;exitDy=0;exitPerimeter=0;" parent="1" source="Zn5r9EZrdUr86XTQLXBg-1" target="Zn5r9EZrdUr86XTQLXBg-3" edge="1">
          <mxGeometry width="50" height="50" relative="1" as="geometry">
            <mxPoint x="154" y="602" as="sourcePoint" />
            <mxPoint x="100" y="620" as="targetPoint" />
          </mxGeometry>
        </mxCell>
        <mxCell id="Zn5r9EZrdUr86XTQLXBg-6" value="" style="endArrow=none;dashed=1;html=1;fontSize=16;entryX=0.5;entryY=1;entryDx=0;entryDy=0;exitX=0.31;exitY=1;exitDx=0;exitDy=0;exitPerimeter=0;" parent="1" source="Zn5r9EZrdUr86XTQLXBg-10" target="Zn5r9EZrdUr86XTQLXBg-4" edge="1">
          <mxGeometry width="50" height="50" relative="1" as="geometry">
            <mxPoint x="161.20000000000005" y="652.8800000000001" as="sourcePoint" />
            <mxPoint x="390" y="301" as="targetPoint" />
          </mxGeometry>
        </mxCell>
        <mxCell id="Zn5r9EZrdUr86XTQLXBg-7" value=":bdd" style="shape=umlActor;verticalLabelPosition=bottom;labelBackgroundColor=#ffffff;verticalAlign=top;html=1;shadow=0;strokeColor=#000000;gradientColor=none;fontSize=16;align=center;" parent="1" vertex="1">
          <mxGeometry x="1003" y="200" width="30" height="60" as="geometry" />
        </mxCell>
        <mxCell id="Zn5r9EZrdUr86XTQLXBg-8" value="id_post" style="html=1;gradientColor=none;rounded=1;" parent="1" vertex="1">
          <mxGeometry x="550" y="336.794117647059" width="110" height="50" as="geometry" />
        </mxCell>
        <mxCell id="Zn5r9EZrdUr86XTQLXBg-9" value="&amp;lt;&amp;lt;get_id&amp;gt;&amp;gt;" style="html=1;verticalAlign=bottom;endArrow=open;fontSize=11;dashed=1;endFill=0;" parent="1" edge="1">
          <mxGeometry width="80" relative="1" as="geometry">
            <mxPoint x="390" y="361.5" as="sourcePoint" />
            <mxPoint x="550" y="362" as="targetPoint" />
          </mxGeometry>
        </mxCell>
        <mxCell id="Zn5r9EZrdUr86XTQLXBg-10" value="" style="html=1;points=[];perimeter=orthogonalPerimeter;rounded=1;gradientColor=none;" parent="1" vertex="1">
          <mxGeometry x="385" y="362" width="10" height="178" as="geometry" />
        </mxCell>
        <mxCell id="Zn5r9EZrdUr86XTQLXBg-11" value="" style="endArrow=none;dashed=1;html=1;fontSize=16;entryX=0.5;entryY=1;entryDx=0;entryDy=0;exitX=0.31;exitY=1.004;exitDx=0;exitDy=0;exitPerimeter=0;" parent="1" source="Zn5r9EZrdUr86XTQLXBg-1" target="Zn5r9EZrdUr86XTQLXBg-10" edge="1">
          <mxGeometry width="50" height="50" relative="1" as="geometry">
            <mxPoint x="390" y="520" as="sourcePoint" />
            <mxPoint x="390" y="260" as="targetPoint" />
          </mxGeometry>
        </mxCell>
        <mxCell id="Zn5r9EZrdUr86XTQLXBg-12" value="updatePost()" style="html=1;verticalAlign=bottom;endArrow=block;fontSize=11;" parent="1" edge="1">
          <mxGeometry width="80" relative="1" as="geometry">
            <mxPoint x="155" y="361" as="sourcePoint" />
            <mxPoint x="390" y="361" as="targetPoint" />
          </mxGeometry>
        </mxCell>
        <mxCell id="Zn5r9EZrdUr86XTQLXBg-13" value="" style="html=1;points=[];perimeter=orthogonalPerimeter;rounded=1;gradientColor=none;" parent="1" vertex="1">
          <mxGeometry x="1013" y="365" width="10" height="76" as="geometry" />
        </mxCell>
        <mxCell id="Zn5r9EZrdUr86XTQLXBg-14" value="&amp;lt;&amp;lt;get&amp;gt;&amp;gt;" style="html=1;verticalAlign=bottom;endArrow=open;fontSize=11;dashed=1;endFill=0;" parent="1" edge="1">
          <mxGeometry width="80" relative="1" as="geometry">
            <mxPoint x="660" y="361.5" as="sourcePoint" />
            <mxPoint x="1020" y="362" as="targetPoint" />
          </mxGeometry>
        </mxCell>
        <mxCell id="Zn5r9EZrdUr86XTQLXBg-15" value="&amp;lt;&amp;lt;return&amp;gt;&amp;gt;" style="html=1;verticalAlign=bottom;endArrow=open;fontSize=11;dashed=1;endFill=0;entryX=1.168;entryY=0.713;entryDx=0;entryDy=0;entryPerimeter=0;exitX=0.146;exitY=0.999;exitDx=0;exitDy=0;exitPerimeter=0;" parent="1" edge="1">
          <mxGeometry width="80" relative="1" as="geometry">
            <mxPoint x="1015" y="441" as="sourcePoint" />
            <mxPoint x="396.68000000000006" y="439.55999999999995" as="targetPoint" />
          </mxGeometry>
        </mxCell>
        <mxCell id="Zn5r9EZrdUr86XTQLXBg-16" value="getPost()" style="html=1;verticalAlign=bottom;endArrow=classic;fontSize=11;exitX=0.057;exitY=0.453;exitDx=0;exitDy=0;exitPerimeter=0;dashed=1;endFill=0;" parent="1" source="Zn5r9EZrdUr86XTQLXBg-10" edge="1">
          <mxGeometry width="80" relative="1" as="geometry">
            <mxPoint x="165" y="371" as="sourcePoint" />
            <mxPoint x="155" y="442" as="targetPoint" />
          </mxGeometry>
        </mxCell>
        <mxCell id="Zn5r9EZrdUr86XTQLXBg-17" value="" style="endArrow=none;dashed=1;html=1;fontSize=16;entryX=0.493;entryY=0.739;entryDx=0;entryDy=0;entryPerimeter=0;" parent="1" target="Zn5r9EZrdUr86XTQLXBg-7" edge="1">
          <mxGeometry width="50" height="50" relative="1" as="geometry">
            <mxPoint x="1018" y="370" as="sourcePoint" />
            <mxPoint x="400" y="270" as="targetPoint" />
          </mxGeometry>
        </mxCell>
        <mxCell id="Zn5r9EZrdUr86XTQLXBg-22" value="" style="endArrow=none;dashed=1;html=1;entryX=0.479;entryY=1.037;entryDx=0;entryDy=0;entryPerimeter=0;exitX=0.881;exitY=1.002;exitDx=0;exitDy=0;exitPerimeter=0;" parent="1" source="Zn5r9EZrdUr86XTQLXBg-1" target="Zn5r9EZrdUr86XTQLXBg-13" edge="1">
          <mxGeometry width="50" height="50" relative="1" as="geometry">
            <mxPoint x="1017.79" y="490.36300000000006" as="sourcePoint" />
            <mxPoint x="100" y="680" as="targetPoint" />
          </mxGeometry>
        </mxCell>
      </root>
    </mxGraphModel>
  </diagram>
</mxfile>
